<svg width="32" height="32" viewBox="0 0 32 32" fill="none" xmlns="http://www.w3.org/2000/svg">
<g id="EnvelopeOpen">
<path id="Vector" opacity="0.2" d="M28 12L18.1875 19H13.8125L4 12L16 4L28 12Z" fill="#F28705"/>
<path id="Vector_2" d="M4 12V25C4 25.2652 4.10536 25.5196 4.29289 25.7071C4.48043 25.8946 4.73478 26 5 26H27C27.2652 26 27.5196 25.8946 27.7071 25.7071C27.8946 25.5196 28 25.2652 28 25V12L16 4L4 12Z" stroke="#F28705" stroke-linecap="round" stroke-linejoin="round"/>
<path id="Vector_3" d="M13.8125 19L4.3125 25.7125" stroke="#F28705" stroke-linecap="round" stroke-linejoin="round"/>
<path id="Vector_4" d="M27.6875 25.7125L18.1875 19" stroke="#F28705" stroke-linecap="round" stroke-linejoin="round"/>
<path id="Vector_5" d="M28 12L18.1875 19H13.8125L4 12" stroke="#F28705" stroke-linecap="round" stroke-linejoin="round"/>
</g>
</svg>
