<svg width="24" height="25" viewBox="0 0 24 25" fill="none" xmlns="http://www.w3.org/2000/svg">
<g id="basil:menu-outline">
<path id="Vector" fill-rule="evenodd" clip-rule="evenodd" d="M19.75 12.5C19.75 12.3011 19.671 12.1103 19.5303 11.9697C19.3897 11.829 19.1989 11.75 19 11.75H5C4.80109 11.75 4.61032 11.829 4.46967 11.9697C4.32902 12.1103 4.25 12.3011 4.25 12.5C4.25 12.6989 4.32902 12.8897 4.46967 13.0303C4.61032 13.171 4.80109 13.25 5 13.25H19C19.1989 13.25 19.3897 13.171 19.5303 13.0303C19.671 12.8897 19.75 12.6989 19.75 12.5ZM19.75 7.5C19.75 7.30109 19.671 7.11032 19.5303 6.96967C19.3897 6.82902 19.1989 6.75 19 6.75H5C4.80109 6.75 4.61032 6.82902 4.46967 6.96967C4.32902 7.11032 4.25 7.30109 4.25 7.5C4.25 7.69891 4.32902 7.88968 4.46967 8.03033C4.61032 8.17098 4.80109 8.25 5 8.25H19C19.1989 8.25 19.3897 8.17098 19.5303 8.03033C19.671 7.88968 19.75 7.69891 19.75 7.5ZM19.75 17.5C19.75 17.3011 19.671 17.1103 19.5303 16.9697C19.3897 16.829 19.1989 16.75 19 16.75H5C4.80109 16.75 4.61032 16.829 4.46967 16.9697C4.32902 17.1103 4.25 17.3011 4.25 17.5C4.25 17.6989 4.32902 17.8897 4.46967 18.0303C4.61032 18.171 4.80109 18.25 5 18.25H19C19.1989 18.25 19.3897 18.171 19.5303 18.0303C19.671 17.8897 19.75 17.6989 19.75 17.5Z" fill="black"/>
</g>
</svg>
