<svg width="32" height="32" viewBox="0 0 32 32" fill="none" xmlns="http://www.w3.org/2000/svg">
<g id="InstagramLogo">
<path id="Vector" opacity="0.2" d="M21.5 4.5H10.5C8.9087 4.5 7.38258 5.13214 6.25736 6.25736C5.13214 7.38258 4.5 8.9087 4.5 10.5V21.5C4.5 23.0913 5.13214 24.6174 6.25736 25.7426C7.38258 26.8679 8.9087 27.5 10.5 27.5H21.5C23.0913 27.5 24.6174 26.8679 25.7426 25.7426C26.8679 24.6174 27.5 23.0913 27.5 21.5V10.5C27.5 8.9087 26.8679 7.38258 25.7426 6.25736C24.6174 5.13214 23.0913 4.5 21.5 4.5ZM16 21C15.0111 21 14.0444 20.7068 13.2221 20.1573C12.3999 19.6079 11.759 18.827 11.3806 17.9134C11.0022 16.9998 10.9031 15.9945 11.0961 15.0245C11.289 14.0546 11.7652 13.1637 12.4645 12.4645C13.1637 11.7652 14.0546 11.289 15.0245 11.0961C15.9945 10.9031 16.9998 11.0022 17.9134 11.3806C18.827 11.759 19.6079 12.3999 20.1573 13.2221C20.7068 14.0444 21 15.0111 21 16C21 17.3261 20.4732 18.5979 19.5355 19.5355C18.5979 20.4732 17.3261 21 16 21Z" fill="#F28705"/>
<path id="Vector_2" d="M16 21C18.7614 21 21 18.7614 21 16C21 13.2386 18.7614 11 16 11C13.2386 11 11 13.2386 11 16C11 18.7614 13.2386 21 16 21Z" stroke="#F28705" stroke-miterlimit="10"/>
<path id="Vector_3" d="M21.5 4.5H10.5C7.18629 4.5 4.5 7.18629 4.5 10.5V21.5C4.5 24.8137 7.18629 27.5 10.5 27.5H21.5C24.8137 27.5 27.5 24.8137 27.5 21.5V10.5C27.5 7.18629 24.8137 4.5 21.5 4.5Z" stroke="#F28705" stroke-linecap="round" stroke-linejoin="round"/>
<path id="Vector_4" d="M22.5 11C23.3284 11 24 10.3284 24 9.5C24 8.67157 23.3284 8 22.5 8C21.6716 8 21 8.67157 21 9.5C21 10.3284 21.6716 11 22.5 11Z" fill="#F28705"/>
</g>
</svg>
