<svg width="32" height="32" viewBox="0 0 32 32" fill="none" xmlns="http://www.w3.org/2000/svg">
<g id="WhatsappLogo">
<path id="Vector" opacity="0.2" d="M16.0004 4C13.8826 4.00283 11.8033 4.56545 9.97312 5.63083C8.14292 6.69621 6.62689 8.22649 5.57867 10.0666C4.53046 11.9067 3.98731 13.9912 4.00429 16.1088C4.02127 18.2264 4.59777 20.302 5.67535 22.125L4.50035 26.275C4.45062 26.445 4.44755 26.6253 4.49145 26.7969C4.53535 26.9686 4.62461 27.1252 4.74988 27.2505C4.87514 27.3757 5.0318 27.465 5.20343 27.5089C5.37505 27.5528 5.55533 27.5497 5.72535 27.5L9.87535 26.325C11.4636 27.2656 13.2474 27.8272 15.088 27.966C16.9286 28.1048 18.7765 27.8172 20.4878 27.1254C22.1991 26.4336 23.7278 25.3563 24.9549 23.9774C26.182 22.5985 27.0744 20.955 27.5628 19.1749C28.0512 17.3949 28.1223 15.5261 27.7707 13.714C27.4191 11.902 26.6541 10.1955 25.5354 8.72724C24.4167 7.25901 22.9744 6.06865 21.3206 5.24875C19.6668 4.42886 17.8462 4.00152 16.0004 4ZM19.0129 23C17.6971 23.0033 16.3936 22.7466 15.1773 22.2446C13.9611 21.7426 12.856 21.0052 11.9256 20.0748C10.9952 19.1444 10.2578 18.0393 9.75579 16.823C9.25379 15.6068 8.99706 14.3033 9.00035 12.9875C9.00366 12.0614 9.37387 11.1744 10.0299 10.5207C10.6859 9.86703 11.5743 9.49999 12.5004 9.5C12.6531 9.49878 12.8034 9.53877 12.9354 9.61576C13.0674 9.69275 13.1762 9.8039 13.2504 9.9375L14.7129 12.4875C14.7998 12.6425 14.8445 12.8177 14.8423 12.9954C14.8401 13.1732 14.7911 13.3472 14.7004 13.5L13.5254 15.4625C14.1272 16.8014 15.199 17.8732 16.5379 18.475L18.5004 17.3C18.6532 17.2092 18.8272 17.1603 19.0049 17.1581C19.1827 17.1559 19.3578 17.2005 19.5129 17.2875L22.0629 18.75C22.1965 18.8241 22.3076 18.9329 22.3846 19.0649C22.4616 19.1969 22.5016 19.3472 22.5004 19.5C22.4971 20.4251 22.129 21.3115 21.476 21.9669C20.8231 22.6222 19.9379 22.9934 19.0129 23Z" fill="#F28705"/>
<path id="Vector_2" d="M5.67534 22.1251C4.18645 19.6131 3.66565 16.644 4.21072 13.7753C4.75579 10.9065 6.32925 8.33537 8.63569 6.5445C10.9421 4.75364 13.823 3.86623 16.7373 4.04888C19.6517 4.23152 22.3992 5.47165 24.464 7.53646C26.5288 9.60127 27.7689 12.3488 27.9516 15.2631C28.1342 18.1775 27.2468 21.0583 25.4559 23.3647C23.6651 25.6712 21.0939 27.2446 18.2252 27.7897C15.3564 28.3348 12.3873 27.814 9.87534 26.3251V26.3251L5.72534 27.5001C5.55531 27.5498 5.37503 27.5529 5.20341 27.509C5.03178 27.4651 4.87513 27.3758 4.74986 27.2506C4.6246 27.1253 4.53534 26.9686 4.49144 26.797C4.44753 26.6254 4.45061 26.4451 4.50034 26.2751L5.67534 22.1251Z" stroke="#F28705" stroke-linecap="round" stroke-linejoin="round"/>
<path id="Vector_3" d="M19.0125 23C17.6967 23.0033 16.3933 22.7466 15.177 22.2446C13.9608 21.7426 12.8557 21.0052 11.9253 20.0748C10.9949 19.1444 10.2575 18.0393 9.75547 16.823C9.25346 15.6068 8.99673 14.3033 9.00003 12.9875C9.00334 12.0614 9.37355 11.1744 10.0296 10.5207C10.6856 9.86705 11.5739 9.50002 12.5 9.50003V9.50003C12.6528 9.49881 12.8031 9.5388 12.9351 9.61579C13.0671 9.69278 13.1759 9.80392 13.25 9.93753L14.7125 12.4875C14.7995 12.6425 14.8441 12.8177 14.8419 12.9955C14.8397 13.1732 14.7908 13.3472 14.7 13.5L13.525 15.4625C14.1269 16.8014 15.1987 17.8732 16.5375 18.475L18.5 17.3C18.6529 17.2093 18.8269 17.1603 19.0046 17.1581C19.1823 17.1559 19.3575 17.2006 19.5125 17.2875L22.0625 18.75C22.1961 18.8242 22.3073 18.933 22.3843 19.0649C22.4613 19.1969 22.5013 19.3472 22.5 19.5C22.4968 20.4251 22.1287 21.3116 21.4757 21.9669C20.8227 22.6222 19.9376 22.9934 19.0125 23V23Z" stroke="#F28705" stroke-linecap="round" stroke-linejoin="round"/>
</g>
</svg>
